<svg xmlns="http://www.w3.org/2000/svg" viewBox="0 0 240 148" width="240" height="148" role="img"><title>AmaniHost, concierges de villas</title><path d="M90.00 79.50V33.00A30.00 30.00 0 0 1 150.00 33.00V79.50" fill="none" stroke="#b08a3e" stroke-width="3.0" stroke-linecap="butt"/><path d="M110.20 56.15 110.92 54.76H126.46L126.85 56.15ZM139.73 69.08Q139.95 69.08 139.95 69.41Q139.95 69.75 139.73 69.75Q138.06 69.75 136.31 69.63Q134.56 69.52 132.95 69.52Q131.12 69.52 129.76 69.63Q128.40 69.75 126.74 69.75Q126.52 69.75 126.52 69.41Q126.52 69.08 126.74 69.08Q129.24 69.08 129.74 68.19Q130.23 67.30 128.90 64.69L117.30 41.11L119.58 37.39L108.59 62.14Q107.15 65.53 108.51 67.30Q109.87 69.08 113.14 69.08Q113.42 69.08 113.42 69.41Q113.42 69.75 113.14 69.75Q111.48 69.75 110.09 69.63Q108.70 69.52 106.59 69.52Q104.48 69.52 103.23 69.63Q101.99 69.75 100.15 69.75Q99.93 69.75 99.93 69.41Q99.93 69.08 100.15 69.08Q101.65 69.08 102.73 68.47Q103.82 67.86 104.87 66.22Q105.93 64.58 107.20 61.64L119.13 34.72Q119.25 34.56 119.63 34.56Q120.02 34.56 120.08 34.72L133.68 62.14Q134.95 64.81 135.95 66.33Q136.95 67.86 137.84 68.47Q138.73 69.08 139.73 69.08Z" fill="#13233f"/><path d="M31.67 110.2 32.19 109.2H43.39L43.67 110.2ZM52.95 119.52Q53.12 119.52 53.12 119.75Q53.12 120.0 52.95 120.0Q51.76 120.0 50.5 119.92Q49.23 119.84 48.08 119.84Q46.76 119.84 45.78 119.92Q44.8 120.0 43.59 120.0Q43.44 120.0 43.44 119.75Q43.44 119.52 43.59 119.52Q45.39 119.52 45.75 118.88Q46.12 118.24 45.16 116.36L36.8 99.36L38.44 96.68L30.51 114.52Q29.47 116.96 30.45 118.24Q31.43 119.52 33.8 119.52Q34.0 119.52 34.0 119.75Q34.0 120.0 33.8 120.0Q32.59 120.0 31.59 119.92Q30.59 119.84 29.08 119.84Q27.55 119.84 26.65 119.92Q25.75 120.0 24.43 120.0Q24.27 120.0 24.27 119.75Q24.27 119.52 24.43 119.52Q25.51 119.52 26.29 119.08Q27.07 118.64 27.83 117.46Q28.59 116.28 29.51 114.16L38.12 94.75Q38.19 94.64 38.48 94.64Q38.76 94.64 38.8 94.75L48.59 114.52Q49.51 116.44 50.23 117.53Q50.95 118.64 51.59 119.08Q52.23 119.52 52.95 119.52ZM76.12 120.0Q76.0 120.0 76.0 119.75Q76.0 119.52 76.12 119.52Q77.44 119.52 77.92 118.96Q78.4 118.4 78.4 116.76V110.8Q78.4 106.4 75.24 106.4Q73.92 106.4 72.68 107.12Q71.44 107.84 70.6 109.08L70.4 108.6Q71.88 106.44 73.58 105.28Q75.28 104.12 77.2 104.12Q79.28 104.12 80.44 105.32Q81.6 106.52 81.6 109.03V116.76Q81.6 118.4 82.06 118.96Q82.52 119.52 83.88 119.52Q84.03 119.52 84.03 119.75Q84.03 120.0 83.88 120.0Q83.12 120.0 82.12 119.96Q81.12 119.92 80.0 119.92Q78.88 119.92 77.88 119.96Q76.88 120.0 76.12 120.0ZM65.67 120.0Q65.56 120.0 65.56 119.75Q65.56 119.52 65.67 119.52Q67.03 119.52 67.5 118.96Q67.96 118.4 67.96 116.76V110.8Q67.96 106.4 64.8 106.4Q63.51 106.4 62.26 107.12Q61.0 107.84 60.16 109.08L59.96 108.6Q61.44 106.44 63.14 105.28Q64.84 104.12 66.75 104.12Q68.88 104.12 70.02 105.28Q71.16 106.44 71.16 108.72V116.76Q71.16 118.4 71.64 118.96Q72.12 119.52 73.47 119.52Q73.6 119.52 73.6 119.75Q73.6 120.0 73.47 120.0Q72.68 120.0 71.68 119.96Q70.68 119.92 69.56 119.92Q68.48 119.92 67.46 119.96Q66.44 120.0 65.67 120.0ZM55.4 120.0Q55.28 120.0 55.28 119.75Q55.28 119.52 55.4 119.52Q56.76 119.52 57.2 118.96Q57.64 118.4 57.64 116.76V109.12Q57.64 107.84 57.36 107.24Q57.08 106.64 56.36 106.64Q56.0 106.64 55.48 106.8Q54.96 106.96 54.36 107.24Q54.19 107.28 54.09 107.06Q54.0 106.84 54.12 106.8L59.36 104.24Q59.55 104.16 59.64 104.16Q60.04 104.16 60.45 105.08Q60.87 106.0 60.87 107.76V116.76Q60.87 118.4 61.33 118.96Q61.8 119.52 63.16 119.52Q63.28 119.52 63.28 119.75Q63.28 120.0 63.16 120.0Q62.4 120.0 61.4 119.96Q60.4 119.92 59.28 119.92Q58.19 119.92 57.17 119.96Q56.16 120.0 55.4 120.0ZM98.12 120.24Q97.96 120.32 97.75 120.32Q97.12 120.32 96.48 119.4Q95.84 118.48 95.84 116.72V109.68Q95.84 107.16 95.34 106.03Q94.84 104.92 93.75 104.92Q92.75 104.92 92.22 105.5Q91.67 106.08 91.44 106.82Q91.2 107.56 91.16 108.08Q91.03 109.08 90.53 109.6Q90.03 110.12 89.12 110.12Q88.2 110.12 87.8 109.7Q87.39 109.28 87.39 108.72Q87.39 107.84 88.22 107.02Q89.03 106.2 90.3 105.56Q91.56 104.92 92.92 104.53Q94.28 104.16 95.32 104.16Q96.96 104.16 98.02 105.19Q99.08 106.24 99.08 108.48V115.68Q99.08 116.92 99.47 117.56Q99.88 118.2 100.64 118.2Q101.28 118.2 102.08 117.84Q102.28 117.76 102.36 117.98Q102.44 118.2 102.24 118.28ZM90.6 120.28Q88.92 120.28 88.1 119.48Q87.28 118.68 87.28 117.44Q87.28 116.32 87.88 115.62Q88.48 114.92 89.56 114.46Q90.64 114.0 91.96 113.52L96.24 111.92L96.36 112.52L93.44 113.76Q92.96 113.92 92.4 114.22Q91.84 114.52 91.46 115.0Q91.08 115.48 91.08 116.28Q91.08 117.24 91.72 117.82Q92.36 118.4 93.16 118.4Q93.52 118.4 93.88 118.30Q94.24 118.2 94.72 117.88L96.88 116.44L96.92 117.04L94.08 119.04Q93.16 119.68 92.38 119.98Q91.6 120.28 90.6 120.28ZM115.44 120.0Q115.32 120.0 115.32 119.75Q115.32 119.52 115.44 119.52Q116.8 119.52 117.24 118.96Q117.67 118.4 117.67 116.76V110.76Q117.67 108.52 116.85 107.46Q116.03 106.4 114.27 106.4Q113.0 106.4 111.66 107.1Q110.32 107.8 109.44 109.03L109.24 108.56Q110.8 106.44 112.53 105.25Q114.27 104.08 116.27 104.08Q118.52 104.08 119.72 105.42Q120.91 106.76 120.91 109.03V116.76Q120.91 118.4 121.38 118.96Q121.83 119.52 123.19 119.52Q123.32 119.52 123.32 119.75Q123.32 120.0 123.19 120.0Q122.44 120.0 121.44 119.96Q120.44 119.92 119.32 119.92Q118.24 119.92 117.22 119.96Q116.19 120.0 115.44 120.0ZM104.67 120.0Q104.55 120.0 104.55 119.75Q104.55 119.52 104.67 119.52Q106.03 119.52 106.47 118.96Q106.91 118.4 106.91 116.76V109.12Q106.91 107.84 106.63 107.24Q106.35 106.64 105.63 106.64Q105.27 106.64 104.75 106.8Q104.24 106.96 103.63 107.24Q103.47 107.28 103.38 107.06Q103.27 106.84 103.39 106.8L108.63 104.24Q108.83 104.16 108.91 104.16Q109.32 104.16 109.74 105.08Q110.16 106.0 110.16 107.76V116.76Q110.16 118.4 110.62 118.96Q111.08 119.52 112.44 119.52Q112.55 119.52 112.55 119.75Q112.55 120.0 112.44 120.0Q111.67 120.0 110.67 119.96Q109.67 119.92 108.55 119.92Q107.47 119.92 106.46 119.96Q105.44 120.0 104.67 120.0ZM126.52 120.0Q126.39 120.0 126.39 119.75Q126.39 119.52 126.52 119.52Q127.88 119.52 128.33 118.96Q128.79 118.4 128.79 116.76V109.48Q128.79 108.12 128.51 107.5Q128.23 106.88 127.55 106.88Q127.24 106.88 126.84 107.0Q126.44 107.12 125.96 107.36Q125.8 107.4 125.69 107.16Q125.6 106.92 125.71 106.88L131.48 104.2Q131.56 104.16 131.6 104.16Q131.76 104.16 131.94 104.34Q132.12 104.52 132.12 104.64Q132.12 105.08 132.07 106.24Q132.04 107.4 132.04 109.44V116.76Q132.04 118.4 132.5 118.96Q132.95 119.52 134.32 119.52Q134.44 119.52 134.44 119.75Q134.44 120.0 134.32 120.0Q133.51 120.0 132.51 119.96Q131.51 119.92 130.39 119.92Q129.32 119.92 128.29 119.96Q127.27 120.0 126.52 120.0ZM130.2 99.96Q129.16 99.96 128.57 99.4Q127.99 98.84 127.99 97.8Q127.99 96.84 128.57 96.28Q129.16 95.72 130.2 95.72Q131.2 95.72 131.74 96.28Q132.28 96.84 132.28 97.8Q132.28 99.96 130.2 99.96ZM158.32 98.32Q158.32 97.16 158.07 96.56Q157.83 95.96 157.11 95.72Q156.39 95.48 154.92 95.48Q154.79 95.48 154.79 95.24Q154.79 95.0 154.92 95.0Q155.92 95.0 157.21 95.06Q158.51 95.12 160.23 95.12Q161.64 95.12 163.0 95.06Q164.35 95.0 165.35 95.0Q165.48 95.0 165.48 95.24Q165.48 95.48 165.35 95.48Q163.95 95.48 163.26 95.7Q162.56 95.92 162.32 96.5Q162.07 97.08 162.07 98.24V116.76Q162.07 117.92 162.32 118.52Q162.56 119.12 163.26 119.32Q163.95 119.52 165.35 119.52Q165.48 119.52 165.48 119.75Q165.48 120.0 165.35 120.0Q164.35 120.0 163.0 119.96Q161.64 119.92 160.23 119.92Q158.51 119.92 157.21 119.96Q155.92 120.0 154.92 120.0Q154.79 120.0 154.79 119.75Q154.79 119.52 154.92 119.52Q156.39 119.52 157.11 119.32Q157.83 119.12 158.07 118.52Q158.32 117.92 158.32 116.76ZM142.51 107.52V106.48H160.04V107.52ZM140.76 116.76V98.24Q140.76 97.08 140.51 96.5Q140.28 95.92 139.6 95.7Q138.92 95.48 137.51 95.48Q137.44 95.48 137.44 95.24Q137.44 95.0 137.51 95.0Q138.56 95.0 139.83 95.06Q141.11 95.12 142.51 95.12Q144.23 95.12 145.56 95.06Q146.88 95.0 147.92 95.0Q148.0 95.0 148.0 95.24Q148.0 95.48 147.92 95.48Q146.48 95.48 145.76 95.72Q145.04 95.96 144.8 96.56Q144.56 97.16 144.56 98.32V116.76Q144.56 117.92 144.8 118.52Q145.04 119.12 145.77 119.32Q146.51 119.52 147.92 119.52Q148.0 119.52 148.0 119.75Q148.0 120.0 147.92 120.0Q146.83 120.0 145.53 119.96Q144.23 119.92 142.51 119.92Q141.11 119.92 139.79 119.96Q138.48 120.0 137.48 120.0Q137.39 120.0 137.39 119.75Q137.39 119.52 137.48 119.52Q138.88 119.52 139.56 119.32Q140.23 119.12 140.5 118.52Q140.76 117.92 140.76 116.76ZM176.88 120.52Q174.4 120.52 172.60 119.36Q170.8 118.2 169.8 116.25Q168.8 114.32 168.8 112.08Q168.8 110.0 169.60 108.47Q170.4 106.96 171.70 105.97Q173.00 105.0 174.54 104.52Q176.08 104.03 177.56 104.03Q180.08 104.03 181.88 105.24Q183.68 106.44 184.62 108.32Q185.56 110.2 185.56 112.32Q185.56 114.8 184.36 116.64Q183.16 118.48 181.20 119.5Q179.24 120.52 176.88 120.52ZM178.08 119.72Q179.84 119.72 180.8 118.18Q181.76 116.64 181.76 113.6Q181.76 110.84 180.98 108.88Q180.20 106.92 178.96 105.88Q177.72 104.84 176.24 104.84Q174.48 104.84 173.52 106.30Q172.56 107.76 172.56 110.68Q172.56 113.32 173.28 115.36Q174.00 117.4 175.26 118.56Q176.52 119.72 178.08 119.72ZM192.20 106.64Q192.20 107.56 192.68 108.24Q193.16 108.92 193.92 109.46Q194.68 110.0 195.56 110.48Q196.56 111.03 197.50 111.63Q198.44 112.24 199.08 113.1Q199.72 113.96 199.72 115.32Q199.72 116.6 199.06 117.78Q198.40 118.96 197.10 119.69Q195.80 120.44 193.84 120.44Q192.84 120.44 191.88 120.19Q190.92 119.96 189.80 119.32Q189.72 119.24 189.64 119.12Q189.56 119.0 189.56 118.84L189.48 115.16Q189.48 115.04 189.70 115.02Q189.92 115.0 189.96 115.12Q190.40 116.4 191.18 117.44Q191.96 118.48 192.94 119.06Q193.92 119.64 194.96 119.64Q195.96 119.64 196.54 119.1Q197.12 118.56 197.08 117.44Q197.08 116.32 196.56 115.58Q196.04 114.84 195.26 114.32Q194.48 113.8 193.64 113.36Q192.68 112.84 191.78 112.30Q190.88 111.76 190.28 110.9Q189.68 110.03 189.68 108.64Q189.68 107.0 190.50 106.02Q191.32 105.03 192.64 104.58Q193.96 104.12 195.36 104.12Q196.20 104.12 196.94 104.24Q197.68 104.36 198.56 104.72Q198.92 104.84 198.92 105.16Q198.92 105.92 198.88 106.72Q198.84 107.52 198.84 108.52Q198.84 108.6 198.60 108.6Q198.36 108.6 198.36 108.52Q198.36 107.72 197.72 106.88Q197.08 106.03 196.10 105.46Q195.12 104.88 194.04 104.88Q193.32 104.88 192.76 105.24Q192.20 105.6 192.20 106.64ZM209.4 120.48Q208.44 120.48 207.5 120.16Q206.56 119.84 205.94 119.08Q205.32 118.32 205.32 116.92V107.88Q205.32 107.0 205.14 106.52Q204.96 106.03 204.52 105.86Q204.08 105.68 203.28 105.68Q203.12 105.68 203.12 105.36Q203.12 105.03 203.28 105.03Q205.16 104.96 206.34 104.13Q207.52 103.32 208.0 101.8Q208.04 101.64 208.32 101.64Q208.6 101.64 208.6 101.8V115.6Q208.6 117.24 209.42 117.96Q210.24 118.68 211.56 118.68Q212.52 118.68 213.34 118.30Q214.16 117.92 214.72 117.48Q214.84 117.4 215.0 117.58Q215.16 117.76 215.0 117.88Q213.52 119.24 212.22 119.86Q210.92 120.48 209.4 120.48ZM213.76 106.56Q212.16 106.2 210.66 106.06Q209.16 105.92 207.44 105.92V104.96Q209.08 104.96 210.62 104.84Q212.16 104.72 213.92 104.56Q214.0 104.56 214.1 104.84Q214.2 105.12 214.2 105.52Q214.2 105.88 214.06 106.24Q213.92 106.6 213.76 106.56Z" fill="#13233f"/><path d="M38.87 142.15Q37.79 142.15 37.03 141.67Q36.27 141.20 35.87 140.35Q35.46 139.51 35.46 138.4Q35.46 137.28 35.87 136.44Q36.27 135.59 37.03 135.12Q37.79 134.65 38.87 134.65Q40.12 134.65 40.93 135.27Q41.75 135.90 42.07 136.97L41.01 137.26Q40.80 136.50 40.26 136.07Q39.73 135.64 38.87 135.64Q38.10 135.64 37.59 135.98Q37.09 136.33 36.83 136.95Q36.57 137.57 36.57 138.4Q36.57 139.22 36.82 139.84Q37.08 140.46 37.59 140.81Q38.10 141.15 38.87 141.15Q39.73 141.15 40.26 140.72Q40.80 140.28 41.01 139.53L42.07 139.82Q41.75 140.89 40.93 141.52Q40.12 142.15 38.87 142.15ZM49.17 142.15Q48.10 142.15 47.33 141.67Q46.57 141.20 46.17 140.35Q45.77 139.51 45.77 138.4Q45.77 137.28 46.17 136.44Q46.57 135.59 47.33 135.12Q48.10 134.65 49.17 134.65Q50.25 134.65 51.01 135.12Q51.77 135.59 52.18 136.44Q52.58 137.28 52.58 138.4Q52.58 139.51 52.18 140.35Q51.77 141.20 51.01 141.67Q50.25 142.15 49.17 142.15ZM49.17 141.15Q49.94 141.16 50.45 140.81Q50.96 140.47 51.21 139.84Q51.47 139.22 51.47 138.4Q51.47 137.57 51.21 136.95Q50.96 136.34 50.45 135.99Q49.94 135.65 49.17 135.64Q48.41 135.63 47.90 135.98Q47.39 136.32 47.14 136.95Q46.88 137.57 46.88 138.4Q46.88 139.22 47.13 139.84Q47.39 140.45 47.90 140.80Q48.41 141.14 49.17 141.15ZM56.57 142.0V134.8H57.64L61.18 140.14V134.8H62.24V142.0H61.18L57.64 136.64V142.0ZM69.64 142.15Q68.57 142.15 67.80 141.67Q67.04 141.20 66.64 140.35Q66.24 139.51 66.24 138.4Q66.24 137.28 66.64 136.44Q67.04 135.59 67.80 135.12Q68.57 134.65 69.64 134.65Q70.89 134.65 71.71 135.27Q72.53 135.90 72.85 136.97L71.79 137.26Q71.57 136.50 71.04 136.07Q70.50 135.64 69.64 135.64Q68.88 135.64 68.37 135.98Q67.86 136.33 67.60 136.95Q67.35 137.57 67.34 138.4Q67.34 139.22 67.60 139.84Q67.85 140.46 68.37 140.81Q68.88 141.15 69.64 141.15Q70.50 141.15 71.04 140.72Q71.57 140.28 71.79 139.53L72.85 139.82Q72.53 140.89 71.71 141.52Q70.89 142.15 69.64 142.15ZM77.04 142.0V134.8H78.09V142.0ZM82.59 142.0V134.8H87.19V135.78H83.64V137.80H86.59V138.79H83.64V141.01H87.19V142.0ZM91.39 142.0V134.8H94.30Q94.41 134.8 94.56 134.80Q94.72 134.81 94.85 134.84Q95.46 134.93 95.86 135.24Q96.26 135.56 96.46 136.04Q96.66 136.52 96.66 137.10Q96.66 137.96 96.22 138.58Q95.78 139.21 94.90 139.36L94.47 139.41H92.44V142.0ZM95.60 142.0 94.18 139.07 95.23 138.8 96.79 142.0ZM92.44 138.42H94.26Q94.36 138.42 94.48 138.41Q94.60 138.40 94.71 138.37Q95.04 138.30 95.23 138.10Q95.42 137.89 95.51 137.63Q95.60 137.37 95.60 137.10Q95.60 136.84 95.51 136.57Q95.42 136.31 95.23 136.11Q95.04 135.91 94.71 135.83Q94.60 135.80 94.48 135.79Q94.36 135.78 94.26 135.78H92.44ZM103.84 142.15Q103.12 142.15 102.51 141.89Q101.89 141.64 101.44 141.16Q100.99 140.67 100.74 139.98Q100.49 139.28 100.49 138.4Q100.49 137.23 100.92 136.39Q101.35 135.55 102.10 135.10Q102.85 134.65 103.84 134.65Q105.11 134.65 105.87 135.24Q106.63 135.83 106.90 136.87L105.84 137.06Q105.62 136.42 105.13 136.03Q104.64 135.65 103.90 135.64Q103.13 135.64 102.63 135.98Q102.12 136.32 101.86 136.95Q101.61 137.57 101.61 138.4Q101.60 139.22 101.86 139.84Q102.11 140.45 102.62 140.80Q103.13 141.14 103.90 141.15Q104.52 141.16 104.96 140.92Q105.40 140.69 105.66 140.22Q105.92 139.76 105.99 139.10H104.60V138.25H107.11Q107.12 138.34 107.12 138.49Q107.13 138.64 107.13 138.68Q107.13 139.68 106.74 140.47Q106.36 141.25 105.62 141.70Q104.89 142.15 103.84 142.15ZM111.13 142.0V134.8H115.73V135.78H112.17V137.80H115.13V138.79H112.17V141.01H115.73V142.0ZM122.54 142.15Q121.76 142.15 121.14 141.88Q120.51 141.61 120.11 141.11Q119.71 140.62 119.59 139.93L120.68 139.76Q120.84 140.42 121.37 140.79Q121.89 141.16 122.60 141.16Q123.03 141.16 123.39 141.02Q123.76 140.88 123.98 140.63Q124.20 140.37 124.20 140.01Q124.20 139.81 124.14 139.66Q124.07 139.51 123.95 139.40Q123.83 139.29 123.67 139.21Q123.50 139.13 123.30 139.07L121.46 138.52Q121.19 138.44 120.91 138.31Q120.63 138.18 120.39 137.98Q120.16 137.77 120.02 137.46Q119.87 137.15 119.87 136.72Q119.87 136.05 120.21 135.59Q120.56 135.12 121.14 134.89Q121.72 134.65 122.45 134.65Q123.18 134.66 123.76 134.91Q124.33 135.16 124.72 135.63Q125.10 136.10 125.25 136.76L124.12 136.95Q124.05 136.54 123.80 136.25Q123.56 135.96 123.20 135.80Q122.85 135.65 122.44 135.64Q122.03 135.63 121.70 135.76Q121.37 135.89 121.17 136.13Q120.98 136.36 120.98 136.67Q120.98 136.97 121.15 137.15Q121.32 137.33 121.58 137.44Q121.84 137.55 122.10 137.62L123.43 137.99Q123.68 138.06 123.99 138.18Q124.31 138.30 124.61 138.51Q124.91 138.72 125.10 139.07Q125.30 139.41 125.30 139.94Q125.30 140.48 125.08 140.90Q124.86 141.31 124.47 141.59Q124.09 141.86 123.59 142.00Q123.09 142.15 122.54 142.15ZM134.36 142.0V134.8H136.62Q136.72 134.8 136.99 134.80Q137.26 134.81 137.51 134.84Q138.36 134.95 138.93 135.44Q139.51 135.94 139.81 136.71Q140.10 137.48 140.10 138.4Q140.10 139.31 139.81 140.08Q139.51 140.85 138.93 141.35Q138.36 141.84 137.51 141.95Q137.26 141.98 136.99 141.99Q136.71 142.0 136.62 142.0ZM135.43 141.00H136.62Q136.79 141.00 137.02 140.99Q137.26 140.98 137.43 140.95Q137.98 140.84 138.33 140.47Q138.67 140.10 138.83 139.56Q138.99 139.01 138.99 138.4Q138.99 137.76 138.83 137.22Q138.66 136.67 138.32 136.31Q137.97 135.94 137.43 135.84Q137.26 135.81 137.02 135.80Q136.78 135.79 136.62 135.79H135.43ZM144.26 142.0V134.8H148.87V135.78H145.31V137.80H148.27V138.79H145.31V141.01H148.87V142.0ZM159.75 142.0 157.42 134.8H158.50L160.50 140.94L162.51 134.8H163.60L161.26 142.0ZM167.45 142.0V134.8H168.50V142.0ZM173.10 142.0V134.8H174.14V141.01H177.40V142.0ZM181.35 142.0V134.8H182.40V141.01H185.66V142.0ZM189.01 142.0 191.34 134.8H192.85L195.19 142.0H194.10L191.95 135.43H192.22L190.09 142.0ZM190.22 140.37V139.39H193.98V140.37ZM201.70 142.15Q200.92 142.15 200.30 141.88Q199.68 141.61 199.28 141.11Q198.87 140.62 198.76 139.93L199.84 139.76Q200.01 140.42 200.53 140.79Q201.06 141.16 201.76 141.16Q202.19 141.16 202.56 141.02Q202.93 140.88 203.15 140.63Q203.37 140.37 203.37 140.01Q203.37 139.81 203.30 139.66Q203.24 139.51 203.12 139.40Q203.00 139.29 202.83 139.21Q202.67 139.13 202.47 139.07L200.62 138.52Q200.35 138.44 200.07 138.31Q199.79 138.18 199.56 137.98Q199.33 137.77 199.18 137.46Q199.04 137.15 199.04 136.72Q199.04 136.05 199.38 135.59Q199.72 135.12 200.31 134.89Q200.89 134.65 201.61 134.65Q202.35 134.66 202.92 134.91Q203.50 135.16 203.88 135.63Q204.26 136.10 204.41 136.76L203.29 136.95Q203.21 136.54 202.97 136.25Q202.73 135.96 202.37 135.80Q202.01 135.65 201.60 135.64Q201.20 135.63 200.87 135.76Q200.54 135.89 200.34 136.13Q200.14 136.36 200.14 136.67Q200.14 136.97 200.31 137.15Q200.49 137.33 200.75 137.44Q201.01 137.55 201.26 137.62L202.59 137.99Q202.84 138.06 203.16 138.18Q203.48 138.30 203.77 138.51Q204.07 138.72 204.27 139.07Q204.46 139.41 204.46 139.94Q204.46 140.48 204.24 140.90Q204.02 141.31 203.64 141.59Q203.25 141.86 202.76 142.00Q202.26 142.15 201.70 142.15Z" fill="#b08a3e"/></svg>
